<?xml version="1.0" encoding="UTF-8"?>
<svg version="1.1" xmlns="http://www.w3.org/2000/svg" width="1024" height="1024">
<path d="M0 0 C337.92 0 675.84 0 1024 0 C1024 337.92 1024 675.84 1024 1024 C686.08 1024 348.16 1024 0 1024 C0 686.08 0 348.16 0 0 Z " fill="#FEFEFE" transform="translate(0,0)"/>
<path d="M0 0 C1.16551028 -0.00569124 2.33102055 -0.01138248 3.53184932 -0.01724619 C4.81839304 -0.01842606 6.10493676 -0.01960594 7.43046665 -0.02082157 C8.80631309 -0.02555189 10.18215814 -0.03070271 11.55800158 -0.03623921 C15.34758022 -0.05015772 19.13714925 -0.05773244 22.92674696 -0.0642122 C26.1751808 -0.07058025 29.42359883 -0.08065086 32.67202281 -0.09077286 C43.37676569 -0.12411172 54.08151819 -0.14562296 64.78629598 -0.16397271 C67.57420708 -0.16876766 70.36211778 -0.173751 73.15002847 -0.17877793 C90.46432243 -0.20975316 107.77861974 -0.23643765 125.09293365 -0.25319672 C129.10433489 -0.2571462 133.11573607 -0.26114919 137.12713718 -0.2652216 C138.62265476 -0.26673414 138.62265476 -0.26673414 140.14838482 -0.26827724 C156.29031329 -0.28527495 172.43208821 -0.32637298 188.57394176 -0.37724458 C205.14911611 -0.42905163 221.72421157 -0.45814321 238.29946619 -0.4653936 C247.60470732 -0.47005239 256.90969716 -0.48476696 266.21485806 -0.5251379 C274.14196761 -0.55948825 282.06878053 -0.5733571 289.99596023 -0.56071376 C294.03811521 -0.55489821 298.07964325 -0.55867176 302.12170315 -0.5888834 C305.8289564 -0.61636533 309.53514092 -0.61565931 313.24241919 -0.59337295 C315.20485837 -0.58865742 317.16730194 -0.61332008 319.12957424 -0.63934225 C329.44889544 -0.53030633 337.72909888 2.53136546 345.43255711 9.5148077 C351.57943573 16.27637419 353.55430636 23.28268659 353.56677818 32.25427246 C353.56913041 32.97483947 353.57148264 33.69540647 353.57390615 34.43780884 C353.58059093 36.86502522 353.58013809 39.292188 353.57972813 41.7194128 C353.58302708 43.47219119 353.58675271 45.22496882 353.59086961 46.97774547 C353.60089421 51.80454291 353.60460714 56.63132792 353.60725892 61.45813429 C353.61116061 66.66010068 353.62073906 71.8620572 353.62947178 77.0640173 C353.64924022 89.63203274 353.65930299 102.20004899 353.66819957 114.76807609 C353.67258194 120.68556054 353.67794889 126.6030441 353.68318844 132.52052784 C353.70020127 152.18998593 353.71469558 171.85944346 353.72193718 191.52890778 C353.7238471 196.63398966 353.72576743 201.73907154 353.72772312 206.8441534 C353.72820686 208.11300788 353.7286906 209.38186235 353.729189 210.68916696 C353.73748979 231.24506343 353.76282732 251.80090172 353.7953038 272.35677279 C353.82836977 293.45767527 353.84638553 314.55854817 353.84958142 335.6594767 C353.85174697 347.50821282 353.86050218 359.3568641 353.88604259 371.20557499 C353.90774325 381.29630371 353.9158031 391.38692699 353.90607581 401.4776764 C353.90152928 406.62535173 353.90343804 411.77280946 353.92283726 416.92045498 C353.94045627 421.63648958 353.93948133 426.35214763 353.92393997 431.06818616 C353.92156199 432.77081282 353.92589729 434.47346546 353.93776862 436.1760524 C354.01939026 448.65930863 352.77218696 459.19475187 344.49115086 469.1319952 C337.98245949 475.48013061 329.66546673 479.39716983 320.54794407 479.38031673 C319.39537113 479.38306606 318.24279819 479.38581539 317.05529881 479.38864803 C315.80517002 479.38145748 314.55504124 479.37426693 313.26702976 479.36685848 C311.9262604 479.36629383 310.58549042 479.36661198 309.24472141 479.36774349 C305.61703863 479.36831591 301.98948886 479.35657964 298.36183691 479.34259558 C294.56619318 479.33006969 290.7705462 479.32891625 286.97488499 479.32654476 C279.79269732 479.32033545 272.61057074 479.30393207 265.42840993 479.28384578 C257.24947491 479.26146969 249.07053694 479.25048905 240.89157891 479.24045491 C224.07186925 479.21956535 207.25222098 479.18440006 190.43255711 479.1398077 C190.40538019 477.07738153 190.3860813 475.01485067 190.37005711 472.9523077 C190.35845554 471.80375301 190.34685398 470.65519833 190.33490086 469.47183895 C190.42090092 466.53751691 190.78936286 463.99050188 191.43255711 461.1398077 C191.50955996 459.44723525 191.54060778 457.75206771 191.53021336 456.05777645 C191.5269907 455.12642879 191.52376804 454.19508114 191.52044773 453.23551083 C191.51206882 452.27580379 191.50368992 451.31609676 191.49505711 450.3273077 C191.48828953 448.85874325 191.48828953 448.85874325 191.48138523 447.36051083 C191.46964394 444.95354659 191.4532213 442.54670913 191.43255711 440.1398077 C195.015158 438.51770358 197.85260513 437.88462377 201.77630711 437.83121395 C203.27484226 437.79350887 203.27484226 437.79350887 204.80365086 437.75504208 C206.88952619 437.71988687 208.975471 437.68863655 211.06146336 437.66129208 C218.31182874 437.63265345 218.31182874 437.63265345 224.43255711 434.1398077 C227.65097393 429.90618887 227.88639698 426.09697638 227.86615086 420.9523077 C227.87139271 420.17218319 227.87663456 419.39205868 227.88203526 418.58829403 C227.8884383 416.94434451 227.88714072 415.30034908 227.87860203 413.65640926 C227.87008302 411.14743922 227.89888816 408.64074112 227.93060398 406.1319952 C227.93221604 404.53043338 227.93163838 402.92886755 227.92865086 401.3273077 C227.94550182 400.20836117 227.94550182 400.20836117 227.96269321 399.06680965 C227.91492106 395.48053859 227.54923416 393.32892209 225.65155125 390.25308895 C221.33253033 386.13982621 217.83284436 385.82281123 211.99896336 385.8038702 C211.28401203 385.7972134 210.56906071 385.7905566 209.83244419 385.78369808 C208.32376768 385.773596 206.8150467 385.76888031 205.3063364 385.76920223 C203.0058604 385.76482824 200.7073034 385.72848572 198.40716648 385.69058895 C196.93777197 385.68472023 195.46836839 385.6807512 193.99896336 385.6788702 C192.97374325 385.65731365 192.97374325 385.65731365 191.92781162 385.63532162 C187.15470338 385.68068822 184.80369593 386.80412584 181.43255711 390.1398077 C176.77310336 396.64168156 176.31764836 404.42683247 177.43255711 412.1398077 C178.56364652 415.22183656 179.86098099 418.01990987 181.43646336 420.8976202 C182.43255711 423.1398077 182.43255711 423.1398077 181.43255711 426.1398077 C180.94786961 425.14722958 180.46318211 424.15465145 179.96380711 423.1319952 C169.20748403 401.25302624 157.07586538 382.06288367 139.84613132 364.67935848 C138.43255711 363.1398077 138.43255711 363.1398077 136.43255711 360.1398077 C136.98685398 359.89746395 137.54115086 359.6551202 138.11224461 359.4054327 C138.83669773 359.07027645 139.56115086 358.7351202 140.30755711 358.3898077 C141.02685398 358.06496395 141.74615086 357.7401202 142.48724461 357.4054327 C144.84509089 355.87141222 145.48984242 354.77075125 146.43255711 352.1398077 C147.12864224 347.61525433 147.04638937 344.170169 144.68255711 340.2023077 C140.3213173 336.20450455 137.1622183 335.8996794 131.26458836 335.90152645 C129.8107202 335.88976498 128.35686221 335.87669041 126.90301609 335.86246395 C126.14253971 335.85746883 125.38206333 335.85247372 124.59854221 335.84732723 C109.72347432 335.72079493 95.78063981 334.40500239 81.30731297 330.69644833 C72.9748647 329.08303159 64.78098449 329.08296136 56.32708836 329.32340145 C54.02178737 329.36523824 51.71644581 329.40488702 49.41107273 329.44254208 C45.81563163 329.50434141 42.22241563 329.57800307 38.62811375 329.68839169 C35.13156266 329.79151863 31.63733238 329.84316572 28.13958836 329.88590145 C26.53468288 329.95254246 26.53468288 329.95254246 24.89735508 330.02052975 C17.59592808 330.04827879 17.59592808 330.04827879 14.20945835 327.40380001 C11.09509131 323.90677917 8.63279078 320.18645313 6.62005711 315.9523077 C1.92441322 306.92318396 -4.80000347 299.26212348 -11.25494289 291.4523077 C-25.23557288 274.38952825 -28.31821642 262.39807309 -28.19854641 240.68961239 C-28.20369037 238.31661094 -28.21097523 235.94361333 -28.22022915 233.57062435 C-28.2386862 227.15350211 -28.22584177 220.73679728 -28.20613885 214.31969261 C-28.19494544 210.30803047 -28.19470875 206.29641744 -28.1975832 202.28474331 C-28.19829936 201.28319067 -28.19829936 201.28319067 -28.19902999 200.26140465 C-28.2000564 198.90467489 -28.20111176 197.54794514 -28.20219576 196.19121543 C-28.21074433 184.22088645 -28.19414501 172.25072171 -28.16436672 160.2804327 C-28.13550781 148.67945116 -28.12846038 137.07870594 -28.14385891 125.47769833 C-28.16063465 112.82191148 -28.16464333 100.16623657 -28.14714855 87.51044679 C-28.14530428 86.16016755 -28.14346955 84.8098883 -28.14164448 83.45960903 C-28.14073239 82.7953599 -28.1398203 82.13111076 -28.13888057 81.44673286 C-28.13328568 76.77655706 -28.13673076 72.10645347 -28.14318943 67.43627834 C-28.1508547 61.14881887 -28.13871759 54.86169941 -28.11134052 48.5742979 C-28.10445944 46.26847626 -28.10435572 43.96262285 -28.11155605 41.65680218 C-28.12025823 38.50693982 -28.10428084 35.35812506 -28.08210659 32.20835018 C-28.09034736 31.29822886 -28.09858812 30.38810754 -28.10707861 29.45040679 C-27.99140623 20.53486182 -24.43143738 14.45642235 -18.50494289 7.9679327 C-13.02434979 2.79672792 -7.55831256 0.02149777 0 0 Z " fill="#024C7E" transform="translate(552.5674428939819,362.86019229888916)"/>
<path d="M0 0 C1.45296488 -0.00269873 2.90592798 -0.00658432 4.35888672 -0.01159668 C7.39503274 -0.01747393 10.43070608 -0.00898692 13.46679688 0.00976562 C17.34383779 0.03255499 21.2197709 0.01942223 25.09677124 -0.00452423 C28.09440341 -0.01903083 31.0917762 -0.0143542 34.0894165 -0.00401306 C35.51825087 -0.00135915 36.94710937 -0.00456821 38.37591553 -0.01393127 C52.30950394 -0.08521778 52.30950394 -0.08521778 58.125 4.53125 C62.62491085 10.33376662 63.27120051 14.72351838 63.24804783 21.86525249 C63.24920167 22.72978461 63.25035552 23.59431672 63.25154433 24.48504677 C63.25421002 27.40791207 63.24968918 30.33072327 63.24525452 33.25358582 C63.24569023 35.3598233 63.24656513 37.46606073 63.24784368 39.57229787 C63.25008866 45.38032934 63.2460673 51.1883425 63.24106562 56.99637163 C63.23676136 63.25200106 63.23820753 69.50762939 63.2389679 75.76325989 C63.23949315 86.60829661 63.23638101 97.45332594 63.23073006 108.29836082 C63.22481719 119.67514258 63.22096495 131.05192194 63.21987724 142.42870522 C63.2198085 143.13553585 63.21973976 143.84236649 63.21966894 144.57061624 C63.21933062 148.16011227 63.21902923 151.7496083 63.21874207 155.33910433 C63.21664051 180.77709657 63.20989994 206.21508569 63.20043945 231.65307617 C63.19125814 256.36889631 63.184173 281.0847156 63.17993164 305.80053711 C63.17980011 306.56211105 63.17966859 307.32368498 63.17953308 308.10833692 C63.17821458 315.75623201 63.17693876 323.40412711 63.17569422 331.05202222 C63.17315786 346.63228183 63.17033661 362.21254138 63.16734314 377.7928009 C63.1671372 378.86738212 63.1671372 378.86738212 63.16692711 379.96367206 C63.15772325 427.8195327 63.14185691 475.6753915 63.125 523.53125 C61.67676363 523.54079528 60.22850918 523.54762473 58.78025246 523.55329514 C57.97375869 523.55738726 57.16726493 523.56147939 56.33633196 523.56569552 C54.01607685 523.52955332 51.95044056 523.25872307 49.70458984 522.67675781 C48.95787521 522.48934525 48.21116058 522.30193268 47.44181824 522.10884094 C46.66437759 521.90276718 45.88693695 521.69669342 45.0859375 521.484375 C44.25020706 521.27294357 43.41447662 521.06151215 42.55342102 520.84367371 C40.77955737 520.39482321 39.00674786 519.94178846 37.23495483 519.48483276 C32.63623346 518.3017854 28.02788221 517.15807549 23.41796875 516.01953125 C22.51816788 515.79729385 21.618367 515.57505646 20.69129944 515.34608459 C7.52639505 512.1261882 -5.96580708 509.16540432 -19.5703125 509 C-22.96782355 508.3089808 -24.46749826 507.02420565 -26.875 504.53125 C-27.37597154 501.61987489 -27.54809745 499.2893561 -27.5042057 496.37765884 C-27.51147291 495.54476039 -27.51874011 494.71186193 -27.52622753 493.85372412 C-27.54457281 491.04397776 -27.5270782 488.2355802 -27.50991821 485.42584229 C-27.51567567 483.39868269 -27.52361425 481.37152831 -27.53355443 479.34438491 C-27.55450319 473.75915189 -27.544076 468.17434386 -27.52862334 462.58910894 C-27.51734627 456.5712169 -27.5347546 450.55339979 -27.54852295 444.53552246 C-27.56951168 433.42199463 -27.56763558 422.30858423 -27.55396561 411.19505555 C-27.54139693 400.92658972 -27.53810002 390.65817378 -27.54407883 380.38970184 C-27.54446075 379.70905518 -27.54484268 379.02840852 -27.54523618 378.32713621 C-27.54679284 375.56425328 -27.54838483 372.80137038 -27.550035 370.0384875 C-27.5653388 344.10622215 -27.55145002 318.17404345 -27.52455051 292.24179147 C-27.50083219 269.2011869 -27.50293561 246.16072053 -27.52685547 223.12011719 C-27.55363134 197.24188673 -27.56424285 171.36373294 -27.54879415 145.48549056 C-27.54719055 142.72634746 -27.54562635 139.96720435 -27.54407883 137.20806122 C-27.54368344 136.52867657 -27.54328805 135.84929192 -27.54288069 135.14931985 C-27.53719337 124.88993336 -27.54384482 114.63060227 -27.55647659 104.37122345 C-27.57077166 92.70265728 -27.56672066 81.03422259 -27.54007287 69.36567095 C-27.52692132 63.41027428 -27.52180531 57.45515815 -27.53831863 51.49976349 C-27.55320361 46.04919553 -27.5450533 40.59916846 -27.51843087 35.14864966 C-27.5128397 33.17556329 -27.51570055 31.20243134 -27.52780981 29.2293742 C-27.54300349 26.54833398 -27.52743532 23.86914902 -27.5042057 21.18820572 C-27.51591153 20.42102726 -27.52761737 19.6538488 -27.53967792 18.86342251 C-27.43861617 13.03272785 -25.51302653 9.0656344 -21.875 4.53125 C-15.49996379 -0.92381147 -8.03123817 -0.05262927 0 0 Z " fill="#024D7F" transform="translate(434.875,92.46875)"/>
<path d="M0 0 C19.09689661 12.41547586 32.36103783 28.94005506 40.9921875 49.9453125 C41.29769531 50.6878125 41.60320312 51.4303125 41.91796875 52.1953125 C42.74172849 54.42580041 43.38750625 56.64536417 43.9921875 58.9453125 C44.40984375 60.47478516 44.40984375 60.47478516 44.8359375 62.03515625 C52.25242695 94.20761282 45.23326844 126.15988556 28.0546875 153.8203125 C27.3740625 154.8515625 26.6934375 155.8828125 25.9921875 156.9453125 C43.02677203 149.49782506 52.36322391 130.53217113 61.49609375 115.26171875 C61.98980469 114.49730469 62.48351562 113.73289062 62.9921875 112.9453125 C63.3221875 112.9453125 63.6521875 112.9453125 63.9921875 112.9453125 C63.47016252 119.68418037 62.10130371 125.47631564 59.8046875 131.8203125 C59.33276978 133.13793579 59.33276978 133.13793579 58.85131836 134.48217773 C49.76526689 159.23920581 30.68910228 181.17144072 6.9921875 192.9453125 C-25.013278 207.64089134 -61.22790092 215.82851473 -95.3828125 203.1953125 C-107.9497717 198.22359821 -118.59775823 191.44591388 -129.0078125 182.9453125 C-129.7090625 182.38714844 -130.4103125 181.82898438 -131.1328125 181.25390625 C-135.61017684 177.58606537 -139.31913417 173.3924853 -143.0078125 168.9453125 C-143.62398437 168.21699219 -144.24015625 167.48867188 -144.875 166.73828125 C-158.87435925 149.78724987 -170.02002016 130.49582832 -175.0078125 108.9453125 C-175.36101562 107.80707031 -175.71421875 106.66882813 -176.078125 105.49609375 C-177.66652707 99.10983665 -177.40457946 92.48565616 -177.3828125 85.9453125 C-177.38127167 85.25012512 -177.37973083 84.55493774 -177.37814331 83.83868408 C-177.32294991 73.40367298 -176.86027393 63.79609237 -173.0078125 53.9453125 C-172.69634277 53.13449219 -172.38487305 52.32367187 -172.06396484 51.48828125 C-167.61053743 40.11215811 -162.42212558 29.34453943 -156.0078125 18.9453125 C-154.71601752 22.82069745 -155.58071334 24.48900259 -156.7578125 28.3828125 C-161.20067093 44.43099094 -162.2775928 59.91115414 -162.2578125 76.5078125 C-162.25712769 77.3356424 -162.25644287 78.16347229 -162.2557373 79.01638794 C-162.2311616 88.03689903 -162.07900279 96.97596221 -161.0078125 105.9453125 C-160.98203125 104.93855469 -160.95625 103.93179688 -160.9296875 102.89453125 C-159.87878061 73.6172527 -150.21438135 43.70883641 -130.0078125 21.9453125 C-129.16605469 21.02363281 -128.32429687 20.10195313 -127.45703125 19.15234375 C-112.36565358 3.31840914 -92.49024869 -7.01693033 -71.0078125 -11.0546875 C-71.0078125 -11.7146875 -71.0078125 -12.3746875 -71.0078125 -13.0546875 C-48.61118742 -22.65324111 -19.61484676 -11.91386766 0 0 Z " fill="#FBFCFD" transform="translate(670.0078125,731.0546875)"/>
<path d="M0 0 C9.83726481 8.75349835 17.60272544 17.69655177 24.3046875 29.05078125 C24.70896973 29.73430664 25.11325195 30.41783203 25.52978516 31.12207031 C39.58222791 55.35041989 52.28734953 84.3500065 45.05859375 112.765625 C43.47411151 118.00092796 41.47184246 123.03267952 39.3046875 128.05078125 C38.95696289 128.87690918 38.60923828 129.70303711 38.25097656 130.55419922 C27.05716078 156.79131106 9.84323805 179.08088663 -16.6953125 191.05078125 C-20.73767535 192.65880437 -24.82204674 194.10213764 -28.9453125 195.48828125 C-29.9264502 195.81828125 -30.90758789 196.14828125 -31.91845703 196.48828125 C-43.04036142 200.04729066 -53.78790985 201.42433304 -65.4453125 201.36328125 C-67.15146729 201.35482178 -67.15146729 201.35482178 -68.89208984 201.34619141 C-97.79797027 200.93131377 -123.68986531 188.53505196 -144.4453125 168.67578125 C-161.18022112 151.20661704 -170.5656953 130.35765735 -175.6953125 107.05078125 C-175.8711084 106.26203613 -176.0469043 105.47329102 -176.22802734 104.66064453 C-181.3295766 76.16766569 -172.27036169 45.49927307 -156.53515625 21.796875 C-140.0107764 -1.02250669 -114.5284452 -16.30380198 -86.6953125 -20.94921875 C-56.78525371 -24.72993883 -23.906737 -19.7471399 0 0 Z " fill="#FAFCFD" transform="translate(814.6953125,113.94921875)"/>
<path d="M0 0 C1.8828067 -0.02398109 1.8828067 -0.02398109 3.8036499 -0.04844666 C5.17150464 -0.054825 6.53936429 -0.06021722 7.90722656 -0.06469727 C9.31724134 -0.07367055 10.72725517 -0.08279252 12.13726807 -0.09205627 C15.09283761 -0.10853397 18.04829407 -0.11624372 21.00390625 -0.11914062 C24.77451687 -0.12451331 28.54405048 -0.16215019 32.31435776 -0.20788479 C35.22792343 -0.2377683 38.14123373 -0.24486665 41.05493927 -0.24586678 C42.44392055 -0.25004933 43.83290398 -0.26240425 45.22173309 -0.28338432 C53.30852771 -0.39578982 59.5832378 -0.27984333 65.79785156 5.30639648 C69.9741924 9.69690864 70.91549695 13.04823042 70.94045258 18.977314 C70.94676052 19.91737801 70.95306846 20.85744202 70.95956755 21.82599282 C70.96142954 22.85554959 70.96329154 23.88510636 70.96520996 24.94586182 C70.97100335 26.04211057 70.97679673 27.13835933 70.98276567 28.26782775 C71.0008543 31.95418231 71.01170532 35.64052155 71.02246094 39.3269043 C71.03078828 41.29281111 71.03912175 43.25871793 71.04794532 45.22462258 C71.08981269 54.56956066 71.1170539 63.91452416 71.14160156 73.25952148 C71.14357646 73.99710925 71.14555136 74.73469702 71.14758611 75.49463594 C71.18674987 90.14312871 71.22044334 104.79163007 71.24266815 119.44015884 C71.24763734 122.65940615 71.25268169 125.87865333 71.2578125 129.09790039 C71.25908317 129.89801527 71.26035384 130.69813016 71.26166302 131.52249095 C71.28302607 144.48557789 71.33202687 157.44841146 71.39205664 170.4113709 C71.45319283 183.72307962 71.48785789 197.0346576 71.49714136 210.34650493 C71.50305058 217.81956428 71.520787 225.2921941 71.56852722 232.76511383 C71.60914497 239.12890519 71.62599963 245.49219686 71.6118744 251.85611209 C71.60541097 255.10207597 71.61404777 258.34675352 71.64574814 261.59259987 C71.67833983 265.11560942 71.66772934 268.63596048 71.6463623 272.15899658 C71.67592396 273.6899474 71.67592396 273.6899474 71.70608282 275.25182652 C71.60639333 281.76234732 70.17466025 285.07908009 65.57774401 289.72094131 C63.20521755 291.83429055 60.78507281 293.74623754 58.17285156 295.55639648 C51.20005979 300.62038651 45.00364759 306.34036077 38.79785156 312.30639648 C37.44820313 313.59416992 37.44820313 313.59416992 36.07128906 314.90795898 C22.30803804 328.33032453 11.36391579 343.31817007 4.17285156 361.13842773 C2.79785156 364.30639648 2.79785156 364.30639648 0.79785156 366.30639648 C-3.7859849 367.09481636 -7.37264537 366.72897352 -11.51464844 364.61889648 C-14.71941669 361.8613052 -17.30323136 359.10423065 -19.20214844 355.30639648 C-19.30027888 353.45255826 -19.33315946 351.5951441 -19.33636951 349.73871326 C-19.34082736 348.54772677 -19.3452852 347.35674028 -19.34987813 346.12966329 C-19.34978883 344.7962251 -19.34959896 343.46278692 -19.34931946 342.12934875 C-19.35261719 340.72192873 -19.35634256 339.31450966 -19.36046094 337.9070918 C-19.37049957 334.02578512 -19.37420072 330.14449391 -19.37685025 326.26317608 C-19.38074782 322.08239082 -19.39032658 317.90161787 -19.39906311 313.72084045 C-19.4188437 303.61699465 -19.42889605 293.51314782 -19.4377909 283.40928748 C-19.44217146 278.65384609 -19.44753889 273.89840582 -19.45277977 269.14296532 C-19.46979415 253.33898938 -19.48428873 237.53501415 -19.49152851 221.73103046 C-19.49343848 217.62797863 -19.4953588 213.52492681 -19.49731445 209.421875 C-19.49779819 208.40205192 -19.49828193 207.38222885 -19.49878033 206.33150204 C-19.50708212 189.80788187 -19.53242062 173.28433407 -19.56489513 156.7607455 C-19.59794823 139.80481085 -19.61597571 122.84891299 -19.61917275 105.89294595 C-19.62133954 96.369379 -19.63011283 86.84591756 -19.65563393 77.32238197 C-19.67731709 69.21215656 -19.68540314 61.10206225 -19.67566714 52.99181113 C-19.67111541 48.85320796 -19.67305911 44.71487544 -19.69242859 40.5763092 C-19.71001123 36.7868186 -19.70910279 32.99779705 -19.6935313 29.2083018 C-19.69001932 27.18946238 -19.70621809 25.17061831 -19.72313577 23.15184671 C-19.67447901 16.32458943 -19.40344266 11.80323428 -15.20214844 6.30639648 C-10.30074999 1.77260292 -6.66934082 0.06427921 0 0 Z " fill="#034D7E" transform="translate(291.2021484375,327.693603515625)"/>
<path d="M0 0 C1.26181091 -0.00960754 2.52362183 -0.01921509 3.82366943 -0.02911377 C5.20829081 -0.03396258 6.59291428 -0.0382412 7.97753906 -0.04199219 C9.39520266 -0.04774491 10.81286623 -0.05350263 12.23052979 -0.05926514 C15.20642459 -0.06977758 18.18229236 -0.0756181 21.15820312 -0.07910156 C24.9623958 -0.08457551 28.7662286 -0.10857851 32.57030869 -0.13707352 C35.50092593 -0.15574768 38.43145751 -0.16090811 41.36212921 -0.16243744 C42.7638978 -0.16545563 44.16566518 -0.17345595 45.56737518 -0.18662262 C47.53442747 -0.20377503 49.50162838 -0.19994483 51.46875 -0.1953125 C52.58634705 -0.19895813 53.70394409 -0.20260376 54.85540771 -0.20635986 C61.00980742 0.51444079 65.02836548 3.55339392 68.99316406 8.16113281 C72.12805229 13.22608903 72.42728067 17.21368205 72.39430237 22.98432922 C72.40109904 23.86106944 72.40789571 24.73780965 72.41489834 25.64111775 C72.43385704 28.57279678 72.43143435 31.50405755 72.42895508 34.43579102 C72.43793344 36.54027849 72.44814186 38.64476102 72.45948792 40.74923706 C72.48598442 46.46214021 72.49302125 52.17490855 72.49493527 57.88786721 C72.49706815 61.45828607 72.50347368 65.02867069 72.51142693 68.59908104 C72.53917948 81.0585078 72.55143258 93.51783828 72.54907227 105.97729492 C72.54727009 117.58582463 72.57892381 129.19393603 72.62630326 140.80235988 C72.66554861 150.77368425 72.68162316 160.74487201 72.67970604 170.71627301 C72.67894162 176.66960842 72.68746548 182.62257207 72.71924019 188.57583046 C72.74831615 194.17632502 72.7484995 199.77609324 72.72669029 205.37661362 C72.72355673 207.42885971 72.7306182 209.48115128 72.74877167 211.53331947 C72.90360378 230.25288505 72.90360378 230.25288505 67.61857414 236.6718092 C60.51150683 243.18384165 52.71229643 242.75525009 43.45800781 242.69238281 C42.05131259 242.69508263 40.64461919 242.69896911 39.2379303 242.70397949 C36.30191125 242.70984975 33.36638169 242.70139139 30.43041992 242.68261719 C26.68231042 242.65980695 22.93534558 242.67297802 19.18727779 242.69690704 C16.28658034 242.71141477 13.38615089 242.7067369 10.48544502 242.69639587 C9.10405908 242.69374336 7.72264815 242.69694601 6.34129143 242.70631409 C-7.41296903 242.77915623 -7.41296903 242.77915623 -13.00683594 238.16113281 C-17.7768173 233.0763244 -18.73277191 228.88076996 -18.63502502 222.04563904 C-18.64211941 221.14959349 -18.6492138 220.25354795 -18.65652317 219.3303495 C-18.67407229 216.33917647 -18.65601398 213.34930816 -18.63793945 210.3581543 C-18.6430794 208.20924285 -18.65036124 206.06033562 -18.65962219 203.91143799 C-18.67813346 198.08296426 -18.66519943 192.25494808 -18.64553189 186.42649341 C-18.62914416 180.32607667 -18.63795837 174.22568888 -18.64305115 168.1252594 C-18.6475716 157.88201591 -18.63170423 147.63895506 -18.60375977 137.39575195 C-18.57169969 125.55261508 -18.57172717 113.70980746 -18.58897454 101.86664718 C-18.6048362 90.47295149 -18.59810888 79.07937652 -18.58103752 67.68568611 C-18.57416434 62.83691253 -18.57520225 57.98823565 -18.58258247 53.13946342 C-18.5902416 47.43070978 -18.57813092 41.72233106 -18.55073357 36.01364136 C-18.54384513 33.91822993 -18.54375664 31.82278353 -18.5509491 29.72737312 C-18.55963404 26.86771088 -18.54370367 24.00920822 -18.52149963 21.14964294 C-18.5297404 20.31977715 -18.53798117 19.48991136 -18.54647166 18.63489813 C-18.45932927 12.55737337 -16.74173739 8.91566275 -12.37402344 4.51660156 C-7.80286813 0.9386554 -5.77551652 0.03538651 0 0 Z " fill="#014C7E" transform="translate(159.0068359375,451.8388671875)"/>
<path d="M0 0 C15.80328965 13.02562017 27.52197529 27.69908188 37.35180664 45.57885742 C37.95766602 46.65651367 38.56352539 47.73416992 39.18774414 48.84448242 C43.35180664 56.3124255 43.35180664 56.3124255 43.35180664 58.57885742 C50.94180664 58.57885742 58.53180664 58.57885742 66.35180664 58.57885742 C66.68180664 59.23885742 67.01180664 59.89885742 67.35180664 60.57885742 C66.38243164 60.91916992 65.41305664 61.25948242 64.41430664 61.61010742 C50.73686018 66.5143505 38.00309979 72.67590436 25.70727539 80.42651367 C23.35180664 81.57885742 23.35180664 81.57885742 20.35180664 80.57885742 C19.31665039 78.23510742 19.31665039 78.23510742 18.28930664 75.07885742 C13.00399596 60.67441369 4.24130581 48.19631901 -5.64819336 36.57885742 C-6.5009082 35.57145508 -6.5009082 35.57145508 -7.37084961 34.54370117 C-24.9770304 15.49660533 -53.73613083 2.36628576 -79.53881836 1.20776367 C-109.5762427 0.62640935 -137.34407793 8.46059448 -159.48022461 29.47729492 C-160.1956543 30.17081055 -160.91108398 30.86432617 -161.64819336 31.57885742 C-162.27081055 32.12799805 -162.89342773 32.67713867 -163.53491211 33.24291992 C-179.42575426 47.74108152 -187.50168982 73.55528307 -188.64819336 94.57885742 C-189.88377312 124.63632806 -184.39591969 149.70443994 -163.83569336 172.39135742 C-146.30316333 191.0174098 -120.90338944 203.79670322 -95.19116211 204.86010742 C-74.99605533 205.34515377 -54.98626643 203.08714027 -38.28491211 190.68041992 C-36.64819336 189.57885742 -36.64819336 189.57885742 -34.64819336 189.57885742 C-34.52814941 190.1312207 -34.40810547 190.68358398 -34.28442383 191.25268555 C-32.00390398 201.61049348 -29.6197281 211.70353152 -25.52856445 221.5144043 C-24.09208622 225.01929801 -23.33899954 227.7822449 -23.64819336 231.57885742 C-42.38941155 239.92329031 -60.33614655 244.13500593 -80.91479492 243.91503906 C-83.27939812 243.89129512 -85.64287443 243.89453276 -88.00756836 243.90112305 C-100.99503829 243.8786951 -113.79092554 242.94379524 -126.27319336 239.07885742 C-127.10310791 238.82313965 -127.93302246 238.56742188 -128.78808594 238.30395508 C-166.11573223 226.24021928 -195.21571954 199.80903029 -213.13134766 165.12304688 C-214.7004603 161.96862186 -216.18434046 158.78370042 -217.64819336 155.57885742 C-218.05553711 154.72549805 -218.46288086 153.87213867 -218.88256836 152.99291992 C-229.44357225 129.19004193 -230.17824898 96.44637536 -223.64819336 71.57885742 C-223.18993164 69.7902832 -223.18993164 69.7902832 -222.72241211 67.96557617 C-212.22672347 32.43289936 -185.51613922 4.3228837 -153.73876953 -13.37353516 C-144.05093782 -18.60474775 -134.28739727 -22.59475465 -123.64819336 -25.42114258 C-122.87378906 -25.6299707 -122.09938477 -25.83879883 -121.30151367 -26.05395508 C-79.33470169 -36.86643986 -33.74308637 -26.79895471 0 0 Z " fill="#034D7F" transform="translate(516.648193359375,643.421142578125)"/>
<path d="M0 0 C0.97475702 -0.00706559 1.94951403 -0.01413118 2.95380914 -0.02141088 C4.02723459 -0.0189958 5.10066005 -0.01658071 6.20661354 -0.01409245 C7.34496009 -0.01932912 8.48330665 -0.0245658 9.65614855 -0.02996117 C13.4908458 -0.04502668 17.32541039 -0.04566776 21.16013527 -0.04633427 C23.90120523 -0.05286775 26.64226355 -0.06232866 29.38332558 -0.07155704 C36.84398891 -0.09442199 44.30462382 -0.10232913 51.76531744 -0.10738349 C56.42231451 -0.11063852 61.07930331 -0.11715979 65.7362957 -0.12438488 C78.62624725 -0.14395211 91.51619109 -0.16035581 104.40615845 -0.16326141 C105.23125881 -0.16344898 106.05635918 -0.16363655 106.90646259 -0.16382981 C108.57919129 -0.16419606 110.25191999 -0.16455976 111.92464869 -0.16492092 C112.75501063 -0.16510373 113.58537257 -0.16528654 114.44089699 -0.16547489 C115.27227045 -0.16565544 116.10364392 -0.16583599 116.96021052 -0.16602201 C130.43618805 -0.16956484 143.91200591 -0.19659343 157.38792805 -0.23397278 C171.21827752 -0.27202879 185.0485477 -0.29141869 198.87895072 -0.29172093 C206.64636686 -0.29230608 214.4135925 -0.30083528 222.1809597 -0.32971859 C228.7940425 -0.3541963 235.40686531 -0.36153996 242.01998113 -0.34647106 C245.39502238 -0.33928708 248.76913068 -0.34292678 252.14418411 -0.36288166 C255.80143389 -0.38319107 259.45734164 -0.37287763 263.11457253 -0.35466862 C264.18353653 -0.36786858 265.25250054 -0.38106855 266.3538574 -0.39466852 C273.56258478 -0.31236432 273.56258478 -0.31236432 277.42338943 2.73598289 C278.03857122 3.56892907 278.65375301 4.40187525 279.28757668 5.26006222 C279.61757668 5.59006222 279.94757668 5.92006222 280.28757668 6.26006222 C280.40204688 7.94625758 280.44719001 9.63721395 280.46457863 11.32720089 C280.47741386 12.40890057 280.4902491 13.49060024 280.50347328 14.6050787 C280.51455368 16.37369007 280.51455368 16.37369007 280.52585793 18.17803097 C280.53392967 19.38316845 280.54200142 20.58830593 280.55031776 21.82996273 C280.56418101 24.38810942 280.57489308 26.94627478 280.58274269 29.50444698 C280.59992728 33.41357864 280.64379189 37.32185878 280.6879673 41.23076534 C280.69809609 43.71318098 280.70661161 46.19560383 280.71335793 48.67803097 C280.73086601 49.84698406 280.7483741 51.01593716 280.76641273 52.22031307 C280.74970217 58.48890454 280.70874658 62.60975075 276.28757668 67.26006222 C273.26771317 69.11610555 271.00417918 69.51140643 267.48334026 69.51733112 C266.51355899 69.52378002 265.54377771 69.53022891 264.54460913 69.53687322 C263.48187842 69.53377602 262.4191477 69.53067881 261.32421303 69.52748775 C259.62766222 69.53428442 259.62766222 69.53428442 257.89683765 69.5412184 C254.09287949 69.55391622 250.2890635 69.55223855 246.48508644 69.55058956 C243.76357417 69.55548295 241.04207198 69.56331916 238.32056618 69.57094479 C231.68727197 69.58756172 225.0540133 69.59305462 218.42070002 69.59416954 C213.02990967 69.59511958 207.63913106 69.59922764 202.24834442 69.60557079 C186.96880401 69.62318419 171.68929169 69.63240937 156.40974105 69.63090985 C155.17400723 69.63078998 155.17400723 69.63078998 153.9133091 69.63066769 C153.08848236 69.63058593 152.26365563 69.63050416 151.41383415 69.63041992 C138.04140792 69.62960674 124.66909426 69.6487524 111.2967006 69.67694442 C97.57028115 69.70565483 83.84391664 69.71948577 70.11746639 69.71775687 C62.40934142 69.71709238 54.70133449 69.72261032 46.99323654 69.74411297 C40.43143813 69.76230045 33.86981127 69.76669218 27.30799861 69.75309412 C23.95939055 69.7465522 20.61138127 69.74865278 17.26276016 69.76380062 C13.63418409 69.77915502 10.00648022 69.77000894 6.37792397 69.75453854 C4.78717398 69.76996923 4.78717398 69.76996923 3.16428763 69.78571165 C-3.95349653 69.71838625 -3.95349653 69.71838625 -7.82467365 67.38054085 C-11.24135269 63.54264062 -11.95998863 60.05549853 -12.00295067 55.01421261 C-12.01571037 53.99287731 -12.02847008 52.97154202 -12.04161644 51.91925716 C-12.04384209 50.82644939 -12.04606773 49.73364162 -12.04836082 48.60771847 C-12.05501762 47.47482891 -12.06167442 46.34193935 -12.06853294 45.17471981 C-12.0786463 42.78171567 -12.08335037 40.38868341 -12.08302879 37.99565792 C-12.08740344 34.33917904 -12.12374311 30.68390591 -12.16164207 27.02764034 C-12.16751019 24.7001705 -12.17147962 22.37269494 -12.17336082 20.04521847 C-12.18773186 18.95443493 -12.20210289 17.86365139 -12.21690941 16.7398138 C-12.18007721 10.60743353 -11.89103414 6.88337704 -7.71242332 2.26006222 C-4.5044665 0.12142433 -3.68589928 0.0085232 0 0 Z " fill="#FDFEFE" transform="translate(581.712423324585,403.7399377822876)"/>
<path d="M0 0 C9.83726481 8.75349835 17.60272544 17.69655177 24.3046875 29.05078125 C24.70896973 29.73430664 25.11325195 30.41783203 25.52978516 31.12207031 C39.58222791 55.35041989 52.28734953 84.3500065 45.05859375 112.765625 C43.47411151 118.00092796 41.47184246 123.03267952 39.3046875 128.05078125 C38.95696289 128.87690918 38.60923828 129.70303711 38.25097656 130.55419922 C27.05716078 156.79131106 9.84323805 179.08088663 -16.6953125 191.05078125 C-20.73767535 192.65880437 -24.82204674 194.10213764 -28.9453125 195.48828125 C-29.9264502 195.81828125 -30.90758789 196.14828125 -31.91845703 196.48828125 C-43.04036142 200.04729066 -53.78790985 201.42433304 -65.4453125 201.36328125 C-67.15146729 201.35482178 -67.15146729 201.35482178 -68.89208984 201.34619141 C-97.79797027 200.93131377 -123.68986531 188.53505196 -144.4453125 168.67578125 C-161.18022112 151.20661704 -170.5656953 130.35765735 -175.6953125 107.05078125 C-175.8711084 106.26203613 -176.0469043 105.47329102 -176.22802734 104.66064453 C-181.3295766 76.16766569 -172.27036169 45.49927307 -156.53515625 21.796875 C-140.0107764 -1.02250669 -114.5284452 -16.30380198 -86.6953125 -20.94921875 C-56.78525371 -24.72993883 -23.906737 -19.7471399 0 0 Z M-95.6953125 19.05078125 C-96.84644531 19.54835938 -97.99757813 20.0459375 -99.18359375 20.55859375 C-117.98046722 29.0373985 -132.25231663 44.40798762 -139.67089844 63.57080078 C-146.79163035 83.9421222 -148.58126189 107.99862562 -139.6953125 128.05078125 C-139.24929688 129.11941406 -138.80328125 130.18804687 -138.34375 131.2890625 C-129.05471484 151.70937165 -110.21146916 165.20091995 -89.6953125 173.05078125 C-81.41643002 175.92177363 -73.73359454 176.53057399 -65.0078125 176.42578125 C-63.76974854 176.41417969 -62.53168457 176.40257812 -61.25610352 176.390625 C-40.6676757 176.02357693 -20.54068766 170.86605011 -4.6953125 157.05078125 C-3.51775391 156.03757812 -3.51775391 156.03757812 -2.31640625 155.00390625 C11.61206945 142.0888391 19.12917249 123.12313805 20.58984375 104.39453125 C21.16524478 80.57793201 12.50865133 55.66634266 -3.6953125 38.05078125 C-20.91356502 20.36638314 -41.68743161 15.14281412 -65.6027832 14.75805664 C-81.07478359 14.57542636 -81.07478359 14.57542636 -95.6953125 19.05078125 Z " fill="#044E7F" transform="translate(814.6953125,113.94921875)"/>
<path d="M0 0 C19.09689661 12.41547586 32.36103783 28.94005506 40.9921875 49.9453125 C41.29769531 50.6878125 41.60320312 51.4303125 41.91796875 52.1953125 C42.74172849 54.42580041 43.38750625 56.64536417 43.9921875 58.9453125 C44.40984375 60.47478516 44.40984375 60.47478516 44.8359375 62.03515625 C52.25242695 94.20761282 45.23326844 126.15988556 28.0546875 153.8203125 C27.3740625 154.8515625 26.6934375 155.8828125 25.9921875 156.9453125 C43.02677203 149.49782506 52.36322391 130.53217113 61.49609375 115.26171875 C61.98980469 114.49730469 62.48351562 113.73289062 62.9921875 112.9453125 C63.3221875 112.9453125 63.6521875 112.9453125 63.9921875 112.9453125 C63.47016252 119.68418037 62.10130371 125.47631564 59.8046875 131.8203125 C59.33276978 133.13793579 59.33276978 133.13793579 58.85131836 134.48217773 C49.76526689 159.23920581 30.68910228 181.17144072 6.9921875 192.9453125 C-25.013278 207.64089134 -61.22790092 215.82851473 -95.3828125 203.1953125 C-107.9497717 198.22359821 -118.59775823 191.44591388 -129.0078125 182.9453125 C-129.7090625 182.38714844 -130.4103125 181.82898438 -131.1328125 181.25390625 C-135.61017684 177.58606537 -139.31913417 173.3924853 -143.0078125 168.9453125 C-143.62398437 168.21699219 -144.24015625 167.48867188 -144.875 166.73828125 C-158.87435925 149.78724987 -170.02002016 130.49582832 -175.0078125 108.9453125 C-175.36101562 107.80707031 -175.71421875 106.66882813 -176.078125 105.49609375 C-177.66652707 99.10983665 -177.40457946 92.48565616 -177.3828125 85.9453125 C-177.38127167 85.25012512 -177.37973083 84.55493774 -177.37814331 83.83868408 C-177.32294991 73.40367298 -176.86027393 63.79609237 -173.0078125 53.9453125 C-172.69634277 53.13449219 -172.38487305 52.32367187 -172.06396484 51.48828125 C-167.61053743 40.11215811 -162.42212558 29.34453943 -156.0078125 18.9453125 C-154.71601752 22.82069745 -155.58071334 24.48900259 -156.7578125 28.3828125 C-161.20067093 44.43099094 -162.2775928 59.91115414 -162.2578125 76.5078125 C-162.25712769 77.3356424 -162.25644287 78.16347229 -162.2557373 79.01638794 C-162.2311616 88.03689903 -162.07900279 96.97596221 -161.0078125 105.9453125 C-160.98203125 104.93855469 -160.95625 103.93179688 -160.9296875 102.89453125 C-159.87878061 73.6172527 -150.21438135 43.70883641 -130.0078125 21.9453125 C-129.16605469 21.02363281 -128.32429687 20.10195313 -127.45703125 19.15234375 C-112.36565358 3.31840914 -92.49024869 -7.01693033 -71.0078125 -11.0546875 C-71.0078125 -11.7146875 -71.0078125 -12.3746875 -71.0078125 -13.0546875 C-48.61118742 -22.65324111 -19.61484676 -11.91386766 0 0 Z M-114.6328125 32.5078125 C-130.86309203 52.20512357 -136.73322831 79.36024784 -134.83349609 104.22705078 C-132.78887194 124.27887483 -123.11758752 142.72906283 -107.80859375 155.84765625 C-88.17809578 170.54999573 -64.88633287 175.53687166 -40.72705078 172.53808594 C-27.27471906 170.57056159 -14.21038925 168.10700967 -2.0078125 161.9453125 C-0.38359375 161.12546875 -0.38359375 161.12546875 1.2734375 160.2890625 C19.40265577 150.41671592 26.47190287 133.95041033 32.38354492 115.05151367 C38.49348877 93.90811792 32.37136087 70.1035593 22.51953125 51.10546875 C11.51826416 32.06594251 -5.5562653 16.00617565 -27.11254883 10.09375 C-35.51916133 8.11945644 -43.5736196 7.39866463 -52.1953125 7.4453125 C-53.45617676 7.45175781 -54.71704102 7.45820312 -56.01611328 7.46484375 C-78.69914738 7.90512228 -98.73303915 16.00199398 -114.6328125 32.5078125 Z " fill="#044E7F" transform="translate(670.0078125,731.0546875)"/>
<path d="M0 0 C10.23 0 20.46 0 31 0 C31 4.95 31 9.9 31 15 C33.31 15 35.62 15 38 15 C46.55287856 16.98782499 53.94124195 22.27917708 58.7109375 29.640625 C61.31680174 34.41014622 61.25515624 38.64171891 61 44 C60.34 44.99 59.68 45.98 59 47 C56.19969421 47.30713031 53.67254519 47.42616018 50.875 47.375 C49.71629395 47.3608606 49.71629395 47.3608606 48.53417969 47.34643555 C39.82462636 47.11515139 35.27041179 45.27041179 29 39 C23.10967983 35.34800149 16.89121179 33.61007762 10 35 C6.88756487 36.70742899 4.61191549 38.77616902 3 42 C2.49968794 45.41571853 2.49968794 45.41571853 3 49 C7.79311072 54.06700276 13.14954531 55.14253958 19.875 55.75 C33.94936723 57.32218333 47.22041162 63.65813549 57 74 C62.99717437 81.55788481 63.19136342 90.61429145 62.32519531 99.86132812 C61.01386065 108.48542093 55.99809736 115.01529861 49.36328125 120.37890625 C43.27965703 124.5519708 38.36615484 125.94769217 31 127 C31 132.28 31 137.56 31 143 C21.43 143 11.86 143 2 143 C2 137.72 2 132.44 2 127 C-0.31 127 -2.62 127 -5 127 C-15.97718779 123.94751997 -27.07965633 117.29586113 -33.0390625 107.375 C-34.6744637 103.33303282 -34.98998893 99.25158036 -34 95 C-32.25046556 92.59918703 -31.31971308 92.05261736 -28.35205078 91.56420898 C-24.94211696 91.49063037 -21.53578945 91.44303101 -18.125 91.4375 C-16.94035156 91.40076172 -15.75570313 91.36402344 -14.53515625 91.32617188 C-5.97896287 91.2827639 -5.97896287 91.2827639 -3.31152344 93.23706055 C-2.13224006 94.76950218 -1.06443658 96.38566998 0 98 C2.19769496 99.60735489 4.54781167 100.76642288 7 101.9375 C7.60328125 102.25267578 8.2065625 102.56785156 8.828125 102.89257812 C11.63101052 104.27269458 13.60120145 105.03294917 16.7421875 104.7734375 C21.52921771 103.13358978 25.5209592 101.58622548 28 97 C28.80996521 94.34596306 29.41120987 91.71749292 30 89 C28.80761719 88.74605469 27.61523438 88.49210938 26.38671875 88.23046875 C-19.09667617 78.08848055 -19.09667617 78.08848055 -28.51171875 66.0703125 C-28.89972656 65.42835938 -29.28773438 64.78640625 -29.6875 64.125 C-30.08324219 63.48820313 -30.47898437 62.85140625 -30.88671875 62.1953125 C-35.21657886 53.65713222 -35.37342561 44.23468709 -32.4375 35.1875 C-28.13745505 24.87937831 -20.39846682 19.37433926 -10.46484375 14.84375 C-8.01290849 14.00441875 -6.25856531 13.78784524 -3.6875 13.875 C-2.470625 13.91625 -1.25375 13.9575 0 14 C0 9.38 0 4.76 0 0 Z " fill="#034E80" transform="translate(411,674)"/>
<path d="M0 0 C7.92 0 15.84 0 24 0 C24.495 5.445 24.495 5.445 25 11 C27.413125 11.7734375 27.413125 11.7734375 29.875 12.5625 C37.2471536 15.25452512 43.26292703 19.06742181 48.625 24.8125 C50.51381517 29.19111699 50.69687664 33.2920311 50 38 C49.34 38.99 48.68 39.98 48 41 C45.18154405 41.4182225 42.70036815 41.61842868 39.875 41.625 C39.10325439 41.62806152 38.33150879 41.63112305 37.53637695 41.63427734 C32.7725036 41.48598949 29.82970109 40.95501242 26.1875 37.625 C25.64480469 36.99851563 25.10210938 36.37203125 24.54296875 35.7265625 C22.18799645 33.0913783 20.07954869 32.15096128 16.59765625 31.6640625 C10.98721888 31.57751541 10.98721888 31.57751541 5.9375 33.875 C2.79801129 37.3183102 2.90051731 39.4237961 3 44 C7.56115889 46.53714463 11.92909281 47.75156205 17 48.75 C29.74061758 51.5436192 41.31824125 56.91960821 50 67 C52.82101993 71.53265 53.55032692 75.49146574 53.5 80.75 C53.49355469 81.45374756 53.48710938 82.15749512 53.48046875 82.88256836 C53.18872149 91.25206777 50.30694342 97.14179364 44.1875 102.875 C37.38905453 108.27301662 31.65841214 110.45884924 23 111 C23 114.96 23 118.92 23 123 C15.74 123 8.48 123 1 123 C1 119.37 1 115.74 1 112 C-0.01320313 111.89816406 -1.02640625 111.79632813 -2.0703125 111.69140625 C-12.27054241 109.89673359 -22.13398479 103.66548273 -29 96 C-31.65225416 91.98143309 -32.83719466 88.81386927 -32 84 C-28.78139318 80.67104095 -26.07167797 79.39866112 -21.42919922 79.08984375 C-20.73068848 79.08082031 -20.03217773 79.07179688 -19.3125 79.0625 C-18.57789551 79.0521875 -17.84329102 79.041875 -17.08642578 79.03125 C-9.55403875 79.34981152 -4.16985465 82.79034282 1.84643555 87.08618164 C6.40402652 90.31175462 9.1944841 91.7906899 15 91 C18.44467406 89.73142887 18.44467406 89.73142887 21 87 C22.06495359 84.03953092 22.61372607 81.11683104 23 78 C18.1940627 76.31792195 13.46038768 74.83852918 8.5 73.6875 C3.27237054 72.41082957 -1.7931387 70.81911836 -6.875 69.0625 C-7.94524414 68.70128052 -7.94524414 68.70128052 -9.03710938 68.33276367 C-14.96367348 66.23829366 -20.1039507 63.47724451 -24.25 58.625 C-24.96929688 57.80902344 -24.96929688 57.80902344 -25.703125 56.9765625 C-30.19538432 50.12992631 -29.88099885 41.84889884 -29 34 C-26.29356496 25.43317414 -20.58041464 19.59582913 -13 15 C-4.2407932 11 -4.2407932 11 0 11 C0 7.37 0 3.74 0 0 Z " fill="#044E7F" transform="translate(740,149)"/>
<path d="M0 0 C8.58 0 17.16 0 26 0 C26 4.95 26 9.9 26 15 C27.629375 15.37125 29.25875 15.7425 30.9375 16.125 C37.42599747 17.92271515 43.29661029 20.40522233 47.4453125 25.921875 C49.85581216 30.27088836 50.58956193 33.98872358 50 39 C49.34 39.99 48.68 40.98 48 42 C45.00466185 42.38834032 42.31155345 42.57051727 39.3125 42.5625 C38.48975586 42.5622583 37.66701172 42.5620166 36.81933594 42.56176758 C32.38551237 42.43535304 29.15949008 42.30962987 25.75 39.1875 C24.82049401 38.13621381 23.90238373 37.07465699 23 36 C18.19193153 32.86430317 13.63214112 31.91291394 8 33 C4.78986953 34.8764117 4.78986953 34.8764117 3 38 C2.58168596 41.71000718 2.58168596 41.71000718 3 45 C7.95690267 48.14043769 11.65789892 49.53197251 17.5625 50.3125 C28.94527337 52.12629707 40.38781777 57.02644513 48 66 C52.13722379 72.45455441 54.17010559 79.34319252 53 87 C49.22419249 97.72830916 43.03207332 104.25393664 33.0546875 109.37109375 C31 110 31 110 25 110 C25 113.96 25 117.92 25 122 C17.08 122 9.16 122 1 122 C1 118.37 1 114.74 1 111 C-0.85625 110.7215625 -0.85625 110.7215625 -2.75 110.4375 C-12.57031798 108.22250714 -21.37839004 102.36873975 -27 94 C-27.9807664 91.05770079 -28.16488128 89.0091216 -28.1875 85.9375 C-28.20167969 85.05964844 -28.21585938 84.18179688 -28.23046875 83.27734375 C-28 81 -28 81 -26 79 C-16.81277454 77.50230132 -9.02181359 77.62865459 -1.11376953 82.88989258 C2.00300212 85.17185325 5.00927234 87.55477496 8 90 C11.14911479 91.57455739 13.52008816 91.34799118 17 91 C20.49598994 89.08667706 20.49598994 89.08667706 23 86 C23.69975874 82.39030947 23.69975874 82.39030947 24 79 C23.08299316 78.72325439 22.16598633 78.44650879 21.22119141 78.16137695 C17.77048274 77.11735637 14.323501 76.06145232 10.87744141 75.00219727 C9.39468541 74.54817757 7.91097935 74.09724727 6.42626953 73.6496582 C-16.55937252 66.71366709 -16.55937252 66.71366709 -22 60.0625 C-22.53625 59.43472656 -23.0725 58.80695312 -23.625 58.16015625 C-28.11297672 51.10944282 -27.68419945 43.05449988 -27 35 C-25.0843675 27.63571218 -19.49771933 22.27326665 -13.27734375 18.23046875 C-8.36794992 15.40905399 -5.80857391 14 0 14 C0 9.38 0 4.76 0 0 Z " fill="#054E80" transform="translate(604,766)"/>
<path d="M0 0 C2.12501443 0.00849423 4.24732208 -0.02024888 6.37207031 -0.05200195 C19.34201422 -0.12326118 19.34201422 -0.12326118 24.76269531 4.44604492 C27.71439735 8.42863614 28.14451282 11.32463877 28.16674805 16.23657227 C28.1736113 16.89905472 28.18047455 17.56153717 28.18754578 18.24409485 C28.20577451 20.42361177 28.2019816 22.60240597 28.19628906 24.78198242 C28.20085345 26.30506625 28.20615978 27.82814801 28.21217346 29.35122681 C28.22109733 32.54047012 28.21869064 35.72946295 28.20874023 38.91870117 C28.19726322 42.99304076 28.21744532 47.06651199 28.24665737 51.14073753 C28.26506258 54.28589312 28.26471819 57.43084239 28.25901985 60.57603836 C28.2588671 62.077452 28.26487322 63.57888003 28.27731133 65.08024216 C28.38418776 80.09818729 28.38418776 80.09818729 23.76269531 85.44604492 C17.78945578 89.5175257 11.33256386 88.93455806 4.39501953 88.89208984 C2.26789961 88.88356578 0.14345781 88.91240267 -1.98339844 88.9440918 C-3.34928306 88.94570393 -4.71517238 88.94512605 -6.08105469 88.94213867 C-7.92473633 88.94491821 -7.92473633 88.94491821 -9.80566406 88.94775391 C-13.97902369 88.33760493 -16.04039585 87.180678 -19.23730469 84.44604492 C-21.92918584 80.00757152 -22.61802062 76.68483971 -22.64135742 71.52612305 C-22.64822067 70.86188828 -22.65508392 70.1976535 -22.66215515 69.51329041 C-22.68034204 67.33440308 -22.67659818 65.15624128 -22.67089844 62.97729492 C-22.6754637 61.45324471 -22.68077029 59.92919656 -22.68678284 58.40515137 C-22.6956976 55.21768812 -22.69330907 52.03047566 -22.68334961 48.84301758 C-22.6718532 44.76748822 -22.69208909 40.69282445 -22.72126675 36.61740875 C-22.73965051 33.47229559 -22.73933217 30.32738914 -22.73362923 27.18223572 C-22.73347632 25.67999557 -22.7394951 24.17774114 -22.7519207 22.67555237 C-22.76687397 20.57181108 -22.75612542 18.46965983 -22.73901367 16.3659668 C-22.7388475 15.17161011 -22.73868134 13.97725342 -22.73851013 12.7467041 C-21.99415275 7.84478202 -19.76680826 4.66903378 -15.92626953 1.59814453 C-10.88392293 -0.56227254 -5.40045425 -0.03295993 0 0 Z " fill="#FBFDFE" transform="translate(834.2373046875,712.553955078125)"/>
<path d="M0 0 C0.70407986 -0.00085442 1.40815971 -0.00170885 2.13357532 -0.00258917 C4.50434873 -0.00424269 6.87505215 0.00127532 9.24581909 0.00672913 C10.94067381 0.00701105 12.63552865 0.00685316 14.3303833 0.00628662 C18.94169868 0.00599885 23.55298822 0.01189224 28.16429758 0.01886058 C32.97962724 0.02509756 37.79495745 0.02569819 42.61029053 0.02688599 C51.73338283 0.02999828 60.8564632 0.03821031 69.97955024 0.04823548 C80.3639198 0.05939976 90.74828991 0.06490786 101.13266397 0.06993091 C122.49835143 0.080393 143.86402745 0.09819111 165.22970581 0.12025452 C165.22970581 8.04025452 165.22970581 15.96025452 165.22970581 24.12025452 C143.0204482 24.18967763 120.81121669 24.24322619 98.60187244 24.27569103 C88.28987244 24.29116515 77.97794107 24.31226509 67.66598511 24.34657288 C58.67891748 24.37645854 49.69189955 24.39582556 40.70478362 24.40252 C35.94541281 24.40643367 31.18618418 24.41564267 26.4268589 24.43744469 C21.94781662 24.45779665 17.46897518 24.46409092 12.98989105 24.45957756 C11.34555915 24.46040334 9.70122057 24.46637671 8.05692863 24.47787094 C5.811972 24.49279517 3.56777384 24.48920881 1.32279968 24.48101807 C0.06639585 24.48378345 -1.19000799 24.48654882 -2.48448467 24.489398 C-7.03006979 23.97872533 -9.6370013 22.44894274 -12.58279419 18.99525452 C-14.24973595 14.95950077 -14.60156757 11.42020502 -13.77029419 7.12025452 C-10.28449219 0.91036281 -6.77024997 -0.0049274 0 0 Z " fill="#054D7F" transform="translate(114.77029418945313,735.8797454833984)"/>
<path d="M0 0 C1.17068527 -0.0071553 2.34137054 -0.01431061 3.54753113 -0.02168274 C5.4916539 -0.02571609 5.4916539 -0.02571609 7.47505188 -0.02983093 C8.84475885 -0.03609294 10.21446411 -0.04273951 11.58416748 -0.04974365 C15.31579114 -0.06718177 19.04740196 -0.07771376 22.77905631 -0.08594918 C25.11000845 -0.09109502 27.44095658 -0.09717104 29.7719059 -0.10346031 C37.06334122 -0.12252309 44.35476636 -0.13675002 51.64622182 -0.14507228 C60.06531601 -0.15483968 68.48414692 -0.18114141 76.90314835 -0.22157317 C83.40766933 -0.25173905 89.9121149 -0.26654173 96.41670448 -0.26985329 C100.30256647 -0.27220394 104.18814756 -0.28116519 108.07393456 -0.30631447 C111.73230124 -0.32960771 115.3902024 -0.33382371 119.04862404 -0.32355309 C121.02751781 -0.32282215 123.00638799 -0.34190633 124.98518372 -0.36161804 C135.90145785 -0.29763964 135.90145785 -0.29763964 140.60517883 4.14717102 C142.46873962 7.8742926 142.17067859 12.08924422 141.60517883 16.14717102 C139.73101343 19.7724871 137.53152966 21.83838741 133.60517883 23.14717102 C131.75409593 23.24831432 129.89959208 23.29081399 128.04577637 23.30107117 C126.31086693 23.31397186 126.31086693 23.31397186 124.54090881 23.32713318 C122.63562408 23.3335231 122.63562408 23.3335231 120.69184875 23.34004211 C119.3415506 23.34794517 117.99125454 23.35621425 116.64096069 23.36482239 C112.20587677 23.39101629 107.77078352 23.40634615 103.33564758 23.42060852 C101.80811876 23.42596905 100.28059 23.43134656 98.75306129 23.43674088 C92.39896938 23.45836464 86.04487999 23.47710141 79.69076061 23.48836327 C70.58770914 23.50460424 61.48508436 23.53779087 52.38219374 23.59476411 C45.97954464 23.63346989 39.57700964 23.65299661 33.17424661 23.65828383 C29.35093728 23.66193612 25.52808332 23.67394366 21.70490074 23.70638657 C18.1071713 23.73647952 14.51017246 23.74277533 10.91234398 23.73100281 C8.9668379 23.73067718 7.02137684 23.75513418 5.07603455 23.78038025 C-4.4654219 23.71225497 -4.4654219 23.71225497 -8.16366577 20.79820251 C-11.51178504 16.82000823 -11.78260727 13.38906099 -11.75810242 8.37373352 C-11.1815942 4.84029608 -9.12426077 3.27746534 -6.39482117 1.14717102 C-4.66816406 -0.57948608 -2.35455255 0.00982925 0 0 Z " fill="#FCFEFE" transform="translate(579.3948211669922,513.8528289794922)"/>
<path d="M0 0 C1.93274025 -0.00131424 1.93274025 -0.00131424 3.90452576 -0.00265503 C7.42103661 -0.00436994 10.93630853 0.03079481 14.45253253 0.07278872 C18.1333345 0.11040894 21.81416788 0.1138299 25.49513245 0.12094116 C32.45795114 0.13955713 39.42020162 0.18874924 46.3827706 0.2490381 C54.31256855 0.3162052 62.24239427 0.34911772 70.17240608 0.37921071 C86.47798109 0.44185194 102.78298531 0.54732262 119.08813477 0.68115234 C120.59379986 4.30382528 122.09170023 7.92965783 123.58813477 11.55615234 C124.23202148 13.10496094 124.23202148 13.10496094 124.88891602 14.68505859 C125.2949707 15.67119141 125.70102539 16.65732422 126.11938477 17.67333984 C126.49643555 18.5845459 126.87348633 19.49575195 127.26196289 20.43457031 C128.08813477 22.68115234 128.08813477 22.68115234 128.08813477 24.68115234 C109.79041295 24.77458802 91.49275305 24.84512774 73.19484425 24.88840103 C64.69882546 24.90902752 56.2029549 24.93714967 47.70703125 24.98291016 C40.30209447 25.0227754 32.89726503 25.04858453 25.49222392 25.05750632 C21.57115084 25.06272165 17.65038484 25.074981 13.72941017 25.10407257 C10.03825138 25.13123696 6.34752596 25.13959543 2.6562767 25.13358307 C0.65688804 25.13520699 -1.3424535 25.15672447 -3.34172058 25.17883301 C-4.53498962 25.17333435 -5.72825867 25.16783569 -6.95768738 25.16217041 C-7.9928609 25.16585758 -9.02803442 25.16954475 -10.09457684 25.17334366 C-13.6513483 24.55196176 -15.31788493 23.13862518 -17.91186523 20.68115234 C-19.81624077 17.7809107 -20.30792846 15.25300424 -20.47436523 11.80615234 C-20.5375293 10.98373047 -20.60069336 10.16130859 -20.66577148 9.31396484 C-19.65559593 5.78620152 -18.04103461 4.27290729 -15.23635674 1.97013474 C-10.51273117 -0.64922101 -5.26697432 -0.09396616 0 0 Z " fill="#054D7F" transform="translate(164.911865234375,783.31884765625)"/>
<path d="M0 0 C1.58778705 -0.02152877 3.17545706 -0.0555716 4.76269531 -0.10253906 C19.64863054 -0.53876263 19.64863054 -0.53876263 24.22680664 3.30737305 C27.96175839 7.97165137 27.88051096 11.12593031 27.91040039 16.9206543 C27.91610046 17.76924011 27.92180054 18.61782593 27.92767334 19.49212646 C27.93712937 21.29104361 27.94365971 23.08997813 27.94750977 24.88891602 C27.957188 27.63027599 27.9881938 30.37087749 28.01977539 33.11206055 C28.02630829 34.86075402 28.03155764 36.60945285 28.03540039 38.3581543 C28.04774719 39.17398987 28.06009399 39.98982544 28.07281494 40.8303833 C28.05365732 45.77060771 27.41251999 49.10923918 24.70727539 53.4050293 C18.93545392 58.63574251 11.88393463 57.65949814 4.56591797 57.70019531 C3.12376082 57.71170922 1.6816461 57.7321522 0.23974609 57.76171875 C-1.85079722 57.80456854 -3.94007695 57.82058676 -6.03100586 57.83081055 C-7.27922119 57.84539307 -8.52743652 57.85997559 -9.81347656 57.875 C-14.03532296 57.30472042 -16.07055794 56.17309406 -19.29272461 53.4050293 C-22.59905896 48.57053882 -22.77301687 44.19363469 -22.79663086 38.53393555 C-22.80661606 37.6933812 -22.81660126 36.85282684 -22.82688904 35.98680115 C-22.8420188 34.2160227 -22.84911643 32.44515942 -22.84863281 30.67431641 C-22.8551984 27.97829351 -22.90973814 25.28594904 -22.96655273 22.59057617 C-22.97535574 20.86337512 -22.98130933 19.13615672 -22.98413086 17.40893555 C-23.00568741 16.61080948 -23.02724396 15.81268341 -23.04945374 14.9903717 C-22.98273764 9.49027928 -21.55271525 6.70443323 -17.77622986 2.71739197 C-13.28859453 -1.25253337 -5.70451183 0.05810749 0 0 Z " fill="#FBFDFE" transform="translate(592.292724609375,569.594970703125)"/>
<path d="M0 0 C0.71540955 -0.00807175 1.43081909 -0.01614349 2.16790771 -0.02445984 C3.68434224 -0.03829833 5.20080788 -0.04902155 6.71728516 -0.05688477 C9.02437394 -0.07405132 11.33001182 -0.11792999 13.63671875 -0.16210938 C15.11196865 -0.17224087 16.58723072 -0.18075555 18.0625 -0.1875 C19.08938934 -0.21376213 19.08938934 -0.21376213 20.13702393 -0.24055481 C25.15875562 -0.21808318 27.98471524 1.01570524 31.796875 4.23828125 C35.27934997 8.40906149 35.24994745 12.60900254 35.23046875 17.828125 C35.2357106 18.65026993 35.24095245 19.47241486 35.24635315 20.31947327 C35.25275901 22.05338413 35.25145496 23.78733854 35.24291992 25.52124023 C35.23441279 28.16404159 35.26318425 30.80467771 35.29492188 33.44726562 C35.29653424 35.13671811 35.29595567 36.82617439 35.29296875 38.515625 C35.30981972 39.69245094 35.30981972 39.69245094 35.32701111 40.89305115 C35.26112203 46.1200749 34.33514379 49.15532323 30.796875 53.23828125 C26.3929138 56.9179673 23.33119236 57.74864296 17.640625 57.76953125 C16.6425885 57.77527161 16.6425885 57.77527161 15.62438965 57.78112793 C14.22597733 57.78383438 12.82751328 57.77656219 11.42919922 57.75976562 C9.30190006 57.73833188 7.17797675 57.75960435 5.05078125 57.78515625 C3.68488846 57.78251274 2.31899775 57.77738727 0.953125 57.76953125 C-0.89055664 57.76276367 -0.89055664 57.76276367 -2.77148438 57.75585938 C-7.81120227 56.99574256 -10.78918352 54.91643561 -14.04663086 51.05029297 C-15.67512957 47.09060368 -15.68989509 43.49198531 -15.70703125 39.24609375 C-15.71701645 38.38192841 -15.72700165 37.51776306 -15.73728943 36.62741089 C-15.7524409 34.80357637 -15.75951614 32.97965911 -15.7590332 31.15576172 C-15.76558913 28.37847583 -15.82008073 25.60477793 -15.87695312 22.828125 C-15.88575755 21.0507934 -15.89171019 19.27344492 -15.89453125 17.49609375 C-15.9160878 16.67295685 -15.93764435 15.84981995 -15.95985413 15.0017395 C-15.89420029 9.4238494 -14.53081932 6.58353855 -10.68663025 2.54171753 C-7.43531048 -0.31495463 -4.11239212 0.04385507 0 0 Z " fill="#FBFDFE" transform="translate(827.203125,569.76171875)"/>
<path d="M0 0 C2.20838731 0.00850782 4.41418243 -0.02027097 6.62231445 -0.05200195 C8.03832931 -0.05361442 9.4543487 -0.05303556 10.87036133 -0.05004883 C12.1477417 -0.05190186 13.42512207 -0.05375488 14.74121094 -0.05566406 C19.87073049 0.67146311 22.83637661 2.71475478 26.12841797 6.66137695 C27.68951667 10.43461108 27.7291693 13.98219001 27.71411133 18.00073242 C27.71935318 18.82050568 27.72459503 19.64027893 27.72999573 20.4848938 C27.73640223 22.21460847 27.7350967 23.94436678 27.7265625 25.67407227 C27.71806649 28.30589356 27.74680793 30.93553232 27.77856445 33.56713867 C27.78017715 35.25333594 27.77959763 36.93953702 27.77661133 38.62573242 C27.7934623 39.79481644 27.7934623 39.79481644 27.81065369 40.98751831 C27.74016081 46.57919603 26.65567124 49.93013783 23.28051758 54.44604492 C17.30727804 58.5175257 10.85038613 57.93455806 3.9128418 57.89208984 C1.78572188 57.88356578 -0.33871992 57.91240267 -2.46557617 57.9440918 C-3.83146079 57.94570393 -5.19735012 57.94512605 -6.56323242 57.94213867 C-8.40691406 57.94491821 -8.40691406 57.94491821 -10.2878418 57.94775391 C-14.46120142 57.33760493 -16.52257359 56.180678 -19.71948242 53.44604492 C-22.8705747 48.80287777 -23.17428181 44.47634052 -23.15307617 39.01245117 C-23.15831802 38.21628891 -23.16355988 37.42012665 -23.16896057 36.59983826 C-23.17535733 34.92317872 -23.17407428 33.24647417 -23.16552734 31.56982422 C-23.15701823 29.01927956 -23.18580702 26.47097811 -23.2175293 23.9206543 C-23.21914172 22.28458725 -23.21856299 20.64851628 -23.21557617 19.01245117 C-23.22681015 18.25807266 -23.23804413 17.50369415 -23.24961853 16.72645569 C-23.17781917 11.20908134 -21.9737714 7.94215247 -18.71948242 3.44604492 C-13.34416249 -1.02814702 -6.62223076 -0.03898459 0 0 Z " fill="#FAFCFD" transform="translate(753.719482421875,569.553955078125)"/>
<path d="M0 0 C2.23468062 -0.01716382 4.46786215 -0.06104241 6.70214844 -0.10522461 C8.13182509 -0.11535641 9.56151429 -0.12387099 10.99121094 -0.13061523 C12.93592285 -0.15248901 12.93592285 -0.15248901 14.91992188 -0.17480469 C20.0968909 0.50350088 23.03764643 2.53768345 26.35693359 6.50830078 C27.9197939 10.29599726 27.93639533 13.85389899 27.90527344 17.88500977 C27.90814362 18.70715469 27.91101379 19.52929962 27.91397095 20.37635803 C27.91600686 22.11028738 27.9105101 23.84423995 27.89794922 25.578125 C27.88190881 28.22066074 27.89780272 30.86166238 27.91699219 33.50415039 C27.91500927 35.19360687 27.91116459 36.8830624 27.90527344 38.57250977 C27.91438248 39.74933571 27.91438248 39.74933571 27.92367554 40.94993591 C27.86216055 45.79098164 27.13331957 49.07972792 24.50683594 53.29516602 C18.79335159 58.47301121 12.09119764 57.54834246 4.79272461 57.59033203 C3.39906658 57.60184451 2.0054524 57.62228531 0.61206055 57.65185547 C-1.40899395 57.69472414 -3.4287415 57.71072581 -5.45019531 57.72094727 C-6.65651611 57.73552979 -7.86283691 57.7501123 -9.10571289 57.76513672 C-14.13848427 57.06689637 -17.0938376 54.95597435 -20.33666992 51.10717773 C-21.96516863 47.14748845 -21.97993415 43.54887008 -21.99707031 39.30297852 C-22.00705551 38.43881317 -22.01704071 37.57464783 -22.02732849 36.68429565 C-22.04247997 34.86046113 -22.0495552 33.03654388 -22.04907227 31.21264648 C-22.05562819 28.43536059 -22.1101198 25.66166269 -22.16699219 22.88500977 C-22.17579661 21.10767816 -22.18174925 19.33032969 -22.18457031 17.55297852 C-22.20612686 16.72984161 -22.22768341 15.90670471 -22.24989319 15.05862427 C-22.18423935 9.48073416 -20.82085838 6.64042331 -16.97666931 2.59860229 C-12.50426369 -1.33093941 -5.64711216 0.03022155 0 0 Z " fill="#FBFDFE" transform="translate(672.4931640625,569.704833984375)"/>
<path d="M0 0 C0.8621814 -0.00571014 1.72436279 -0.01142029 2.6126709 -0.01730347 C4.03479134 -0.01898026 4.03479134 -0.01898026 5.48564148 -0.02069092 C6.98095901 -0.02813828 6.98095901 -0.02813828 8.50648499 -0.03573608 C11.81554344 -0.05038166 15.12455394 -0.05716388 18.43363953 -0.06268311 C20.7280884 -0.06843281 23.02253725 -0.07419057 25.31698608 -0.07995605 C30.13313522 -0.09047302 34.94926763 -0.09631106 39.76542664 -0.09979248 C45.9394572 -0.10527708 52.1132672 -0.12930162 58.28722858 -0.15776443 C63.02869311 -0.17638055 67.77010442 -0.18159588 72.5116024 -0.18312836 C74.78780002 -0.18615799 77.06399663 -0.19419691 79.34015846 -0.20731354 C82.52424045 -0.22435143 85.70778251 -0.22249905 88.89189148 -0.21600342 C89.83389908 -0.2252182 90.77590668 -0.23443298 91.74645996 -0.243927 C96.5932518 -0.21292395 99.995735 -0.09510667 103.88285828 3.14044189 C106.71168808 7.3836866 106.53553829 11.15778718 105.88285828 16.14044189 C103.74774929 19.80062873 101.73629505 21.52569286 97.88285828 23.14044189 C95.82727909 23.39491749 95.82727909 23.39491749 93.60113525 23.40113831 C92.75303284 23.40822311 91.90493042 23.41530792 91.03112793 23.42260742 C89.64784554 23.4188913 89.64784554 23.4188913 88.23661804 23.4151001 C87.25895477 23.42021103 86.2812915 23.42532196 85.27400208 23.43058777 C82.04069404 23.44449324 78.80759892 23.44352629 75.57426453 23.44122314 C73.32751384 23.44510947 71.08076389 23.44944401 68.83401489 23.45420837 C64.12395344 23.46167259 59.41396694 23.46137776 54.7039032 23.45611572 C48.66666992 23.45032008 42.62974333 23.46725362 36.59256077 23.4904604 C31.95231328 23.5051885 27.31213981 23.50607069 22.67187309 23.50295067 C20.44592112 23.50346432 18.21996505 23.5087102 15.99403572 23.51876259 C12.8819851 23.53109189 9.77053399 23.52435614 6.65849304 23.51275635 C5.27824699 23.52422195 5.27824699 23.52422195 3.87011719 23.53591919 C-0.95192775 23.49617016 -4.20941203 23.28927579 -8.11714172 20.14044189 C-10.9615199 16.70757168 -11.69936033 13.61468778 -11.54682922 9.14044189 C-10.77109679 5.52976004 -8.72661991 3.68778965 -6.11714172 1.14044189 C-3.82778679 -0.00423557 -2.54486551 0.0100771 0 0 Z " fill="#034D7F" transform="translate(152.1171417236328,840.8595581054688)"/>
<path d="M0 0 C2.21709361 -0.00436722 4.43218486 -0.04069081 6.64892578 -0.07861328 C8.06949194 -0.08448347 9.49006749 -0.08845151 10.91064453 -0.09033203 C12.19438965 -0.0985498 13.47813477 -0.10676758 14.80078125 -0.11523438 C19.70944291 0.55556886 22.61628734 2.80490275 26.23095703 6.05810547 C28.05796103 9.81361369 28.21852019 13.29739056 27.35595703 17.37060547 C25.04108206 21.29424574 22.7067548 23.92033955 18.35595703 25.37060547 C13.8358487 25.621973 9.31352213 25.64141319 4.78735352 25.66577148 C3.29669703 25.67728673 1.80608162 25.69773176 0.31567383 25.72729492 C-1.84435892 25.77012708 -4.00316867 25.78616074 -6.16357422 25.79638672 C-8.09873901 25.8182605 -8.09873901 25.8182605 -10.07299805 25.84057617 C-14.2728463 25.28785122 -16.38053508 24.02428561 -19.64404297 21.37060547 C-22.61455861 16.914832 -22.27141788 12.59617941 -21.64404297 7.37060547 C-16.74982265 -1.19428009 -8.77531978 -0.00193844 0 0 Z " fill="#F8FBFC" transform="translate(753.64404296875,697.62939453125)"/>
<path d="M0 0 C0.75980164 -0.00807175 1.51960327 -0.01614349 2.3024292 -0.02445984 C3.91302205 -0.03830013 5.52364422 -0.04902254 7.13427734 -0.05688477 C9.5861861 -0.07405635 12.0367316 -0.11793509 14.48828125 -0.16210938 C16.0546776 -0.17224031 17.62108541 -0.18075516 19.1875 -0.1875 C19.91584045 -0.20500809 20.64418091 -0.22251617 21.39459229 -0.24055481 C26.53000441 -0.21890071 29.39504605 1.02600219 33.359375 4.23828125 C35.94581964 7.64768555 35.72440615 11.07692615 35.359375 15.23828125 C33.53006962 19.37828816 31.12516529 21.76804785 27.359375 24.23828125 C24.57827036 24.64084592 22.20182645 24.82378557 19.42578125 24.8046875 C18.67022446 24.81088608 17.91466766 24.81708466 17.13621521 24.82347107 C15.54354129 24.8305519 13.95079309 24.82742549 12.3581543 24.81469727 C9.93203317 24.80083927 7.50977957 24.83490931 5.08398438 24.87304688 C3.53124906 24.8739983 1.97850896 24.87213799 0.42578125 24.8671875 C-0.65261269 24.88707481 -0.65261269 24.88707481 -1.75279236 24.90736389 C-7.45991851 24.80281131 -9.81826493 23.1948744 -13.640625 19.23828125 C-14.99686748 15.16955381 -15.30668938 11.48806161 -14.640625 7.23828125 C-11.02448954 0.7211416 -6.92252075 0.06943726 0 0 Z " fill="#FBFDFD" transform="translate(826.640625,649.76171875)"/>
<path d="M0 0 C0.75838669 -0.0066568 1.51677338 -0.0133136 2.29814148 -0.02017212 C3.90275653 -0.03029288 5.50741361 -0.03498932 7.11206055 -0.03466797 C9.55524034 -0.03902863 11.99659446 -0.07531574 14.43945312 -0.11328125 C16.00129593 -0.11915227 17.56314729 -0.12311976 19.125 -0.125 C19.8502034 -0.13937103 20.5754068 -0.15374207 21.32258606 -0.16854858 C26.43988558 -0.12295269 29.30647655 1.14312003 33.26171875 4.3359375 C35.60953016 7.32406112 35.67996956 10.55504938 35.58203125 14.3046875 C35.04815739 17.69022908 33.45445777 19.77774198 31.26171875 22.3359375 C27.64288818 24.82909864 23.84732103 24.64217905 19.609375 24.63671875 C18.50365395 24.64314644 18.50365395 24.64314644 17.37559509 24.64970398 C15.81982447 24.65543496 14.26402706 24.65595662 12.70825195 24.65161133 C10.33563242 24.64845269 7.96426226 24.6719193 5.59179688 24.69726562 C4.07682448 24.69953899 2.56184875 24.70024194 1.046875 24.69921875 C0.34152115 24.7084285 -0.3638327 24.71763824 -1.09056091 24.72712708 C-5.48268742 24.68613677 -8.25262017 24.03891541 -11.73828125 21.3359375 C-14.62231092 16.96016835 -15.38815642 13.53493886 -14.73828125 8.3359375 C-10.93105316 1.37789996 -7.61096527 0.02316406 0 0 Z " fill="#FAFDFD" transform="translate(584.73828125,649.6640625)"/>
<path d="M0 0 C1.10640839 -0.01210762 1.10640839 -0.01210762 2.23516846 -0.02445984 C3.79868216 -0.03829926 5.36222606 -0.04902206 6.92578125 -0.05688477 C9.30527945 -0.07405391 11.68337193 -0.11793262 14.0625 -0.16210938 C15.58332314 -0.17224058 17.10415807 -0.18075535 18.625 -0.1875 C19.33146667 -0.20500809 20.03793335 -0.22251617 20.76580811 -0.24055481 C25.83480868 -0.21854565 28.6687711 1.07036926 32.578125 4.23828125 C35.3064587 8.22038679 35.26086017 12.57569957 34.578125 17.23828125 C32.43727925 20.83184376 30.45262496 22.75466288 26.578125 24.23828125 C24.00288966 24.46501903 21.53755652 24.58975439 18.9609375 24.609375 C18.2261618 24.61840347 17.49138611 24.62743195 16.73434448 24.63673401 C15.18280089 24.65121201 13.63119657 24.66011716 12.07958984 24.66381836 C9.71736763 24.67570955 7.35776461 24.72490652 4.99609375 24.77539062 C3.48438767 24.78485669 1.97266564 24.79209085 0.4609375 24.796875 C-0.58935135 24.82617348 -0.58935135 24.82617348 -1.66085815 24.85606384 C-7.32598175 24.80446946 -9.56968151 23.07415496 -13.421875 19.23828125 C-15.97737971 15.7535021 -15.99403773 12.45798138 -15.421875 8.23828125 C-11.13794929 1.60213867 -7.73155927 0.07992641 0 0 Z " fill="#FAFCFD" transform="translate(746.421875,649.76171875)"/>
<path d="M0 0 C1.64304802 -0.01653096 3.28602497 -0.04378364 4.92871094 -0.08203125 C7.30392562 -0.13702414 9.67745562 -0.15870788 12.05322266 -0.17333984 C12.78156311 -0.19600922 13.50990356 -0.21867859 14.26031494 -0.24203491 C18.18753041 -0.22590285 20.66338254 0.32118573 23.67333984 2.7578125 C26.76452678 5.89809406 27.39964389 7.33079161 27.53759766 11.60009766 C27.48542174 16.22884708 26.33022366 18.81370415 23.22509766 22.35009766 C19.61480276 24.8160911 15.83199375 24.68902557 11.60791016 24.72119141 C10.87313446 24.73021988 10.13835876 24.73924835 9.38131714 24.74855042 C7.82977354 24.76302842 6.27816923 24.77193357 4.7265625 24.77563477 C2.36434029 24.78752596 0.00473727 24.83672293 -2.35693359 24.88720703 C-3.86863967 24.8966731 -5.3803617 24.90390726 -6.89208984 24.90869141 C-7.94237869 24.93798988 -7.94237869 24.93798988 -9.0138855 24.96788025 C-14.6706343 24.91636213 -16.94753874 23.20764093 -20.77490234 19.35009766 C-22.63723659 15.62542916 -22.34621063 11.40514452 -21.77490234 7.35009766 C-17.03230336 -1.51573104 -8.71450404 0.06424321 0 0 Z " fill="#FAFCFD" transform="translate(672.77490234375,649.64990234375)"/>
<path d="M0 0 C0.33 0 0.66 0 1 0 C0.88541307 1.43836751 0.75790884 2.87570966 0.625 4.3125 C0.55539062 5.11300781 0.48578125 5.91351562 0.4140625 6.73828125 C0 9 0 9 -2 12 C-3.32 12 -4.64 12 -6 12 C-6 12.66 -6 13.32 -6 14 C-6.66 13.67 -7.32 13.34 -8 13 C-6.69181533 10.83061859 -5.37874076 8.6644848 -4.0625 6.5 C-3.68931641 5.87996094 -3.31613281 5.25992188 -2.93164062 4.62109375 C-1.9818016 3.06370003 -0.99386689 1.5296725 0 0 Z " fill="#2B6286" transform="translate(733,844)"/>
<path d="M0 0 C1.21065165 3.63195496 0.62784815 5.06531629 -0.4375 8.6875 C-0.72496094 9.68136719 -1.01242187 10.67523437 -1.30859375 11.69921875 C-1.53675781 12.45847656 -1.76492188 13.21773437 -2 14 C-2.12375 13.360625 -2.2475 12.72125 -2.375 12.0625 C-2.58125 11.381875 -2.7875 10.70125 -3 10 C-3.66 9.67 -4.32 9.34 -5 9 C-3.35 6.03 -1.7 3.06 0 0 Z " fill="#3D6F8E" transform="translate(514,750)"/>
<path d="M0 0 C4.29 0 8.58 0 13 0 C9 3 9 3 6 3 C6 2.34 6 1.68 6 1 C4.02 1 2.04 1 0 1 C0 0.67 0 0.34 0 0 Z " fill="#094878" transform="translate(569,703)"/>
<path d="M0 0 C0 2.97 0 5.94 0 9 C-3 6 -3 6 -4 3 C-1.125 0 -1.125 0 0 0 Z " fill="#296287" transform="translate(729,767)"/>
<path d="M0 0 C0.66 0.33 1.32 0.66 2 1 C-1.5 5.875 -1.5 5.875 -6 7 C-4.02 4.69 -2.04 2.38 0 0 Z " fill="#1C5D83" transform="translate(335,649)"/>
</svg>
